# xmcd
#
# Track frame offsets:
#	150
#	12074
#	26794
#	40650
#	53569
#	67270
#	80337
#	93046
#	105042
#	117524
#	130148
#	144239
#	156819
#	169770
#	181667
#	192468
#	205818
#	218668
#	231152
#	244407
#	257744
#	270490
#	283763
#	296927
#	308707
#	321330
#	335808
#	348780
#
# Disc length: 4789 seconds
#
# Revision: 1
# Processed by: cddbd v1.5.2PL0 Copyright (c) Steve Scherf et al.
# Submitted via: EZCDAudioConverter 3.1.0.1
#
DISCID=9412b31c
DTITLE=Various Artist - Chicago Is Just That Way [1945-1947]cdB
DYEAR=194
DGENRE=Blues
TTITLE0=Big Maceo - Kidman Blues
TTITLE1=Sippie Wallace - Bedroom Blues
TTITLE2=Sippie Wallace - Buzz Me
TTITLE3=Johnny Shines - Tennessee Woman Blues
TTITLE4=Johnny Shines - Delta Pine Blues
TTITLE5=Johnny Shines - Ride, Ride Mama
TTITLE6=Johnny Shines - Evil Hearted Woman Blues
TTITLE7=Memphis Slim - (Now I) Got The Blues
TTITLE8=Memphis Slim - Don't Ration My Love
TTITLE9=Memphis Slim - Mistake In Life
TTITLE10=Memphis Slim - Grinder Man Blues
TTITLE11=Jazz Gillum - Roll Dem Bones
TTITLE12=Jimmie Gordon - My Woman's A Pearl Diver
TTITLE13=Jimmie Gordon - Jumping At The Club Blue Flame
TTITLE14=Muddy Waters - Mean Red Spider
TTITLE15=Muddy Waters - Jitterbug Blues
TTITLE16=Muddy Waters - Hard Day Blues
TTITLE17=Muddy Waters - Burying Ground Blues
TTITLE18=Lee Brown - Horse Shoe Boogie
TTITLE19=Lee Brown - Ruby Moore Blues
TTITLE20=Lee Brown - Lowland Blues
TTITLE21=Lee Brown - Round The World Boogie
TTITLE22=Big Boy Crudup - That's All Right
TTITLE23=Jazz Gillum - Blues What Am, The
TTITLE24=St  Louis Jimmy - I AIn't Done Nothing Wrong
TTITLE25=St  Louis Jimmy - Going Down Slow
TTITLE26=Floyd Jones - Stockyard Blues
TTITLE27=Floyd Jones - Keep What You Got
EXTD=
EXTT0=
EXTT1=
EXTT2=
EXTT3=
EXTT4=
EXTT5=
EXTT6=
EXTT7=
EXTT8=
EXTT9=
EXTT10=
EXTT11=
EXTT12=
EXTT13=
EXTT14=
EXTT15=
EXTT16=
EXTT17=
EXTT18=
EXTT19=
EXTT20=
EXTT21=
EXTT22=
EXTT23=
EXTT24=
EXTT25=
EXTT26=
EXTT27=
PLAYORDER=
